<?xml version="1.0" encoding="UTF-8" standalone="no"?>
<svg
   width="500"
   height="75"
   version="1.1"
   id="svg887"
   sodipodi:docname="nfts_logo.svg"
   inkscape:version="1.1 (c68e22c387, 2021-05-23)"
   xmlns:inkscape="http://www.inkscape.org/namespaces/inkscape"
   xmlns:sodipodi="http://sodipodi.sourceforge.net/DTD/sodipodi-0.dtd"
   xmlns:xlink="http://www.w3.org/1999/xlink"
   xmlns="http://www.w3.org/2000/svg"
   xmlns:svg="http://www.w3.org/2000/svg"
   xmlns:rdf="http://www.w3.org/1999/02/22-rdf-syntax-ns#"
   xmlns:cc="http://creativecommons.org/ns#"
   xmlns:dc="http://purl.org/dc/elements/1.1/">
  <metadata
     id="metadata891">
    <rdf:RDF>
      <cc:Work
         rdf:about="">
        <dc:format>image/svg+xml</dc:format>
        <dc:type
           rdf:resource="http://purl.org/dc/dcmitype/StillImage" />
      </cc:Work>
    </rdf:RDF>
  </metadata>
  <sodipodi:namedview
     pagecolor="#ffffff"
     bordercolor="#666666"
     borderopacity="1"
     objecttolerance="10"
     gridtolerance="10"
     guidetolerance="10"
     inkscape:pageopacity="0"
     inkscape:pageshadow="2"
     inkscape:window-width="1920"
     inkscape:window-height="1017"
     id="namedview889"
     showgrid="false"
     inkscape:zoom="2.5864662"
     inkscape:cx="212.83866"
     inkscape:cy="127.39389"
     inkscape:window-x="-8"
     inkscape:window-y="-8"
     inkscape:window-maximized="1"
     inkscape:current-layer="svg887"
     inkscape:pagecheckerboard="0"
     width="475px" />
  <defs
     id="defs865">
    <linearGradient
       id="gold1"
       x1="327.32248"
       y1="-7.4391471e-07"
       x2="-3.3606003e-07"
       y2="-7.4391471e-07"
       gradientTransform="scale(1.4878294,0.67212006)"
       gradientUnits="userSpaceOnUse">
      <stop
         offset="0%"
         style="stop-color:rgb(255,163,0); stop-opacity: 1;"
         id="stop855" />
      <stop
         offset="100%"
         style="stop-color:rgb(255,205,0); stop-opacity: 1;"
         id="stop857" />
    </linearGradient>
    <linearGradient
       id="blue1"
       x1="323.12537"
       y1="0"
       x2="0"
       y2="0"
       gradientTransform="scale(1.6402303,0.6096705)"
       gradientUnits="userSpaceOnUse">
      <stop
         offset="0%"
         style="stop-color:rgb(0,71,187); stop-opacity: 1;"
         id="stop860" />
      <stop
         offset="100%"
         style="stop-color:rgb(0,159,223); stop-opacity: 1;"
         id="stop862" />
    </linearGradient>
    <!--
		<marker id="arrow" viewBox="0 0 10 10" refX="0" refY="5" orient="auto" markerWidth="5" markerHeight="5">
			<path d="M0,0 C5,0 5,5 10,5 C5,5 5,10 0,10 z"></path>
		</marker>
		-->
    <linearGradient
       inkscape:collect="always"
       xlink:href="#gold1"
       id="linearGradient1796"
       gradientUnits="userSpaceOnUse"
       gradientTransform="matrix(1.4878294,0,0,0.67212006,486.06389,0)"
       x1="327.32248"
       y1="-7.4391471e-07"
       x2="-3.3606003e-07"
       y2="-7.4391471e-07" />
    <linearGradient
       inkscape:collect="always"
       xlink:href="#blue1"
       id="linearGradient1800"
       gradientUnits="userSpaceOnUse"
       gradientTransform="matrix(1.6402302,0,0,0.6096705,503.06386,0)"
       x1="323.12537"
       y1="0"
       x2="0"
       y2="0" />
    <linearGradient
       inkscape:collect="always"
       xlink:href="#gold1"
       id="linearGradient1802"
       gradientUnits="userSpaceOnUse"
       gradientTransform="scale(1.4878294,0.67212006)"
       x1="327.32248"
       y1="-7.4391471e-07"
       x2="-3.3606003e-07"
       y2="-7.4391471e-07" />
    <linearGradient
       inkscape:collect="always"
       xlink:href="#blue1"
       id="linearGradient1804"
       gradientUnits="userSpaceOnUse"
       gradientTransform="scale(1.6402303,0.6096705)"
       x1="323.12537"
       y1="0"
       x2="0"
       y2="0" />
    <linearGradient
       inkscape:collect="always"
       xlink:href="#blue1"
       id="linearGradient1809"
       gradientUnits="userSpaceOnUse"
       gradientTransform="scale(1.6402303,0.6096705)"
       x1="323.12537"
       y1="0"
       x2="0"
       y2="0" />
    <linearGradient
       inkscape:collect="always"
       xlink:href="#blue1"
       id="linearGradient905"
       x1="28.100613"
       y1="36.248695"
       x2="34.189678"
       y2="26.196369"
       gradientUnits="userSpaceOnUse" />
  </defs>
  <g
     transform="matrix(0.64846361,0,0,0.78004796,153.34786,0.31460766)"
     id="g871">
    <g
       id="g1819"
       transform="translate(-498.93167)">
      <path
         inkscape:connector-curvature="0"
         id="path1794"
         d="M 915.06368,-3.6657e-4 C 880.89673,45.037805 802.45088,69.988252 716.4723,95.915161 h 63.55714 C 849.64665,72.377361 917.9708,47.539795 973.06405,-3.6657e-4 Z"
         style="fill:url(#linearGradient1796);stroke:#000000;stroke-width:0" />
      <path
         inkscape:connector-curvature="0"
         id="path1798"
         d="M 973.06405,-3.6657e-4 C 912.3578,49.358962 811.74296,74.567602 711.93372,95.915161 h 80.53955 C 874.95069,73.912622 956.52917,49.036953 1033.064,-3.6657e-4 Z"
         style="fill:url(#linearGradient1800);stroke:none;stroke-width:1" />
    </g>
  </g>
  <!-- 
		<path d="M22,10 L 25,44 L18,88 L 55,20 L 77,20" marker-end="url(#arrow)" fill="green"  fill-opacity="0.3" stroke="black"></path>
	-->
  <g
     id="g1566"
     transform="matrix(0.67196966,0,0,0.67196966,103.93164,12.510712)">
    <g
       id="g965"
       transform="translate(0,1.8845173)">
      <g
         aria-label="New File Transfer System"
         id="text879"
         style="font-size:20.3px;font-family:'SABIC Typeface Headline';fill:#808080;stroke-width:0.35">
        <path
           d="m 88.837338,13.209291 q 0,-0.9744 0.4466,-1.4007 0.4466,-0.4466 1.1165,-0.4466 0.5887,0 1.0353,0.3045 0.4466,0.2842 0.9135,0.9541 l 6.0494,8.871099 v -9.013199 q 0,-0.5684 0.3248,-0.8323 0.3248,-0.2842 0.9135,-0.2842 0.406002,0 0.710502,0.1015 0.3248,0.1015 0.4263,0.1624 V 25.28779 h -2.436002 l -7.105,-10.413899 V 25.28779 h -2.3954 z"
           style="font-size:20.3px;font-family:'SABIC Typeface Headline';fill:#808080;stroke-width:0.35"
           id="path141891" />
        <path
           d="m 112.52741,24.53669 q -0.1624,0.1015 -0.5075,0.2842 -0.3451,0.1827 -0.8729,0.3451 -0.5075,0.1624 -1.1977,0.2842 -0.6699,0.1218 -1.4819,0.1218 -1.1368,0 -2.1315,-0.3451 -0.9744,-0.3451 -1.7255,-1.015 -0.7308,-0.6902 -1.1571,-1.6646 -0.4263,-0.9947 -0.4263,-2.2736 0,-1.217999 0.406,-2.212699 0.4263,-1.015 1.1571,-1.7255 0.7511,-0.7308 1.7458,-1.1165 1.015,-0.406 2.2127,-0.406 1.0556,0 1.8676,0.2842 0.812,0.2639 1.3601,0.7308 0.5684,0.4466 0.8526,1.0556 0.2842,0.609 0.2842,1.2992 0,0.7105 -0.2639,1.2992 -0.2639,0.568399 -0.9338,0.994699 -0.6699,0.406 -1.8067,0.6496 -1.1368,0.2233 -2.8826,0.2233 -0.406,0 -0.7714,0 -0.3451,-0.0203 -0.7511,-0.0406 0.1624,1.0353 0.9947,1.6849 0.8526,0.6293 2.4157,0.6293 0.5278,0 0.9744,-0.0812 0.4466,-0.0812 0.7917,-0.203 0.3654,-0.1218 0.609,-0.2436 0.2639,-0.1218 0.3857,-0.1827 z m -7.1253,-4.811099 q 0.4669,0.0203 0.8932,0.0203 0.4263,0 0.8526,0 1.1165,0 1.8067,-0.1421 0.6902,-0.1421 1.0759,-0.3654 0.3857,-0.2233 0.5075,-0.5075 0.1218,-0.2842 0.1218,-0.5887 0,-0.7714 -0.6293,-1.1571 -0.609,-0.3857 -1.5225,-0.3857 -0.7511,0 -1.3195,0.2639 -0.5684,0.2639 -0.9541,0.7105 -0.3857,0.4263 -0.609,0.9947 -0.203,0.5684 -0.2233,1.1571 z"
           style="font-size:20.3px;font-family:'SABIC Typeface Headline';fill:#808080;stroke-width:0.35"
           id="path141893" />
        <path
           d="m 114.21229,18.304591 q -0.3451,-0.8932 -0.4669,-1.3601 -0.1218,-0.4872 -0.1218,-0.8526 0,-0.406 0.3045,-0.7105 0.3045,-0.3045 0.8932,-0.3045 0.2842,0 0.4872,0.0609 0.2233,0.0406 0.406,0.1421 l 2.4766,7.571899 1.9488,-6.374199 q 0.2233,-0.7714 0.5481,-1.0759 0.3451,-0.3045 0.9541,-0.3045 0.5887,0 0.9135,0.3045 0.3451,0.3045 0.5684,1.0759 l 1.9488,6.272699 2.02999,-6.292999 q 0.2233,-0.7308 0.5278,-1.0353 0.3045,-0.3248 0.9135,-0.3248 0.5481,0 0.9135,0.1827 0.3654,0.1827 0.406,0.2233 l -3.6134,9.784599 h -2.47659 l -2.1924,-6.962899 -2.1518,6.962899 h -2.4766 z"
           style="font-size:20.3px;font-family:'SABIC Typeface Headline';fill:#808080;stroke-width:0.35"
           id="path141895" />
        <path
           d="m 136.60317,12.742391 q 0,-1.3804 1.4819,-1.3804 h 7.2065 q 1.218,0 1.218,1.0962 0,0.3857 -0.1218,0.7105 -0.1218,0.3045 -0.1827,0.406 h -7.1456 v 3.6946 h 5.6434 q 1.218,0 1.218,1.0962 0,0.3857 -0.1218,0.7105 -0.1218,0.3045 -0.1827,0.406 h -6.5569 v 5.805799 h -2.4563 z"
           style="font-size:20.3px;font-family:'SABIC Typeface Headline';fill:#808080;stroke-width:0.35"
           id="path141897" />
        <path
           d="m 148.25536,16.173091 q 0,-0.5684 0.3248,-0.812 0.3248,-0.2639 0.9135,-0.2639 0.3654,0 0.6699,0.1015 0.3045,0.0812 0.406,0.1218 v 9.967299 h -2.3142 z m 1.1571,-5.6434 q 0.5887,0 0.9947,0.406 0.406,0.406 0.406,0.9947 0,0.5887 -0.406,0.9947 -0.406,0.406 -0.9947,0.406 -0.5887,0 -0.9947,-0.406 -0.406,-0.406 -0.406,-0.9947 0,-0.5887 0.406,-0.9947 0.406,-0.406 0.9947,-0.406 z"
           style="font-size:20.3px;font-family:'SABIC Typeface Headline';fill:#808080;stroke-width:0.35"
           id="path141899" />
        <path
           d="m 153.14764,11.402591 q 0,-0.5481 0.3248,-0.812 0.3248,-0.2639 0.9135,-0.2639 0.3654,0 0.6699,0.1015 0.3045,0.0812 0.406,0.1218 V 25.28779 h -2.3142 z"
           style="font-size:20.3px;font-family:'SABIC Typeface Headline';fill:#808080;stroke-width:0.35"
           id="path141901" />
        <path
           d="m 167.01253,24.53669 q -0.1624,0.1015 -0.5075,0.2842 -0.3451,0.1827 -0.8729,0.3451 -0.5075,0.1624 -1.1977,0.2842 -0.6699,0.1218 -1.4819,0.1218 -1.1368,0 -2.1315,-0.3451 -0.9744,-0.3451 -1.7255,-1.015 -0.7308,-0.6902 -1.1571,-1.6646 -0.4263,-0.9947 -0.4263,-2.2736 0,-1.217999 0.406,-2.212699 0.4263,-1.015 1.1571,-1.7255 0.7511,-0.7308 1.7458,-1.1165 1.015,-0.406 2.2127,-0.406 1.0556,0 1.8676,0.2842 0.812,0.2639 1.3601,0.7308 0.5684,0.4466 0.8526,1.0556 0.2842,0.609 0.2842,1.2992 0,0.7105 -0.2639,1.2992 -0.2639,0.568399 -0.9338,0.994699 -0.6699,0.406 -1.8067,0.6496 -1.1368,0.2233 -2.8826,0.2233 -0.406,0 -0.7714,0 -0.3451,-0.0203 -0.7511,-0.0406 0.1624,1.0353 0.9947,1.6849 0.8526,0.6293 2.4157,0.6293 0.5278,0 0.9744,-0.0812 0.4466,-0.0812 0.7917,-0.203 0.3654,-0.1218 0.609,-0.2436 0.2639,-0.1218 0.3857,-0.1827 z m -7.1253,-4.811099 q 0.4669,0.0203 0.8932,0.0203 0.4263,0 0.8526,0 1.1165,0 1.8067,-0.1421 0.6902,-0.1421 1.0759,-0.3654 0.3857,-0.2233 0.5075,-0.5075 0.1218,-0.2842 0.1218,-0.5887 0,-0.7714 -0.6293,-1.1571 -0.609,-0.3857 -1.5225,-0.3857 -0.7511,0 -1.3195,0.2639 -0.5684,0.2639 -0.9541,0.7105 -0.3857,0.4263 -0.609,0.9947 -0.203,0.5684 -0.2233,1.1571 z"
           style="font-size:20.3px;font-family:'SABIC Typeface Headline';fill:#808080;stroke-width:0.35"
           id="path141903" />
        <path
           d="m 178.4008,13.574691 h -4.06 q -1.1977,0 -1.1977,-1.0962 0,-0.3857 0.1218,-0.6902 0.1218,-0.3248 0.1827,-0.4263 h 11.5913 q 1.19769,0 1.19769,1.0962 0,0.3857 -0.1218,0.7105 -0.1015,0.3045 -0.1827,0.406 H 180.8165 V 25.28779 h -2.4157 z"
           style="font-size:20.3px;font-family:'SABIC Typeface Headline';fill:#808080;stroke-width:0.35"
           id="path141905" />
        <path
           d="m 185.89143,18.730891 q 0,-1.8676 1.1368,-2.8826 1.1571,-1.0353 3.1871,-1.0353 1.2789,0 2.0706,0.3654 0.812,0.3451 0.812,1.0759 0,0.3451 -0.203,0.6699 -0.1827,0.3248 -0.3045,0.406 -0.3451,-0.1624 -0.8526,-0.3045 -0.5075,-0.1421 -1.1571,-0.1421 -2.3751,0 -2.3751,2.5172 v 5.886999 h -2.3142 z"
           style="font-size:20.3px;font-family:'SABIC Typeface Headline';fill:#808080;stroke-width:0.35"
           id="path141907" />
        <path
           d="m 203.30879,25.24719 q -0.203,0.0406 -0.6496,0.0812 -0.4263,0.0609 -1.015,0.1015 -0.5887,0.0609 -1.31949,0.1015 -0.7308,0.0406 -1.5225,0.0406 -1.5834,0 -2.5984,-0.2842 -0.9947,-0.2639 -1.5834,-0.7105 -0.5684,-0.4669 -0.7917,-1.0556 -0.203,-0.609 -0.203,-1.2383 0,-0.8323 0.2436,-1.4616 0.2639,-0.6293 0.8323,-1.055599 0.5887,-0.4263 1.5225,-0.6293 0.9338,-0.2233 2.2736,-0.2233 0.7714,0 1.4616,0.0609 0.69019,0.0406 1.03529,0.0812 0,-0.7105 -0.2436,-1.1774 -0.22329,-0.4669 -0.62929,-0.7308 -0.406,-0.2639 -0.9744,-0.3654 -0.5684,-0.1015 -1.2586,-0.1015 -1.1571,0 -1.8676,0.2639 -0.6902,0.2639 -0.9135,0.4466 -0.1218,-0.1015 -0.3451,-0.3857 -0.203,-0.2842 -0.203,-0.6902 0,-0.2842 0.1421,-0.5481 0.1624,-0.2842 0.5481,-0.4872 0.3857,-0.2233 1.0353,-0.3451 0.6496,-0.1218 1.6443,-0.1218 1.1977,0 2.1721,0.2436 0.99469,0.2233 1.70519,0.7308 0.7105,0.5075 1.0962,1.3398 0.406,0.8323 0.406,2.0097 z m -2.2939,-4.5066 q -0.203,-0.0406 -0.77139,-0.1218 -0.5481,-0.0812 -1.6646,-0.0812 -1.3804,0 -2.0097,0.4263 -0.6293,0.406 -0.6293,1.2992 0,0.3654 0.1218,0.6699 0.1421,0.3045 0.4669,0.5278 0.3248,0.203 0.8729,0.3248 0.5684,0.1015 1.4007,0.1015 0.9338,0 1.4819,-0.0609 0.54809,-0.0812 0.73079,-0.1218 z"
           style="font-size:20.3px;font-family:'SABIC Typeface Headline';fill:#808080;stroke-width:0.35"
           id="path141909" />
        <path
           d="m 205.68386,19.136891 q 0,-1.015 0.3654,-1.8067 0.3857,-0.812 1.0353,-1.3601 0.6699,-0.5684 1.5631,-0.8526 0.9135,-0.3045 1.9894,-0.3045 1.0759,0 1.9894,0.3045 0.9135,0.2842 1.5631,0.8526 0.6699,0.5481 1.0353,1.3601 0.3654,0.7917 0.3654,1.8067 v 6.150899 h -2.3142 v -5.562199 q 0,-1.3804 -0.6699,-2.0909 -0.6699,-0.7308 -1.9691,-0.7308 -1.3195,0 -1.9894,0.7308 -0.6496,0.7105 -0.6496,2.0909 v 5.562199 h -2.3142 z"
           style="font-size:20.3px;font-family:'SABIC Typeface Headline';fill:#808080;stroke-width:0.35"
           id="path141911" />
        <path
           d="m 218.20892,22.75029 q 0.1421,0.1015 0.5075,0.2639 0.3654,0.1624 0.8932,0.3451 0.5481,0.1624 1.2383,0.2842 0.6902,0.1218 1.5022,0.1218 1.0556,0 1.7255,-0.2639 0.6699,-0.2842 0.6699,-0.9541 0,-0.5684 -0.4263,-0.8526 -0.4263,-0.3045 -1.5225,-0.4263 l -1.5834,-0.1827 q -0.812,-0.0812 -1.5022,-0.2842 -0.6699,-0.2233 -1.1571,-0.5887 -0.4872,-0.365399 -0.7714,-0.893199 -0.2639,-0.5481 -0.2639,-1.2992 0,-0.6496 0.2436,-1.218 0.2639,-0.5887 0.812,-1.0353 0.5481,-0.4466 1.421,-0.6902 0.8932,-0.2639 2.1518,-0.2639 2.1112,0 3.2683,0.4669 1.1774,0.4669 1.1774,1.218 0,0.2436 -0.1015,0.4263 -0.0812,0.1827 -0.203,0.3248 -0.1015,0.1421 -0.2233,0.2436 -0.1218,0.0812 -0.1827,0.1015 -0.0812,-0.0812 -0.3654,-0.2436 -0.2639,-0.1827 -0.7308,-0.3451 -0.4669,-0.1827 -1.1165,-0.3045 -0.6496,-0.1421 -1.5022,-0.1421 -2.3548,0 -2.3548,1.2383 0,0.5278 0.4466,0.812 0.4466,0.2639 1.2789,0.3654 l 2.0706,0.2639 q 1.6849,0.2233 2.6187,0.933799 0.9338,0.6902 0.9338,2.0503 0,1.5225 -1.218,2.436 -1.1977,0.9135 -3.4713,0.9135 -1.0962,0 -1.9894,-0.1624 -0.8932,-0.1624 -1.5631,-0.3654 -0.6496,-0.2233 -1.0556,-0.4263 -0.406,-0.203 -0.5278,-0.3045 z"
           style="font-size:20.3px;font-family:'SABIC Typeface Headline';fill:#808080;stroke-width:0.35"
           id="path141913" />
        <path
           d="m 229.15062,14.467891 q 0,-1.0962 0.3045,-1.8879 0.3045,-0.7917 0.8526,-1.2789 0.5684,-0.5075 1.3195,-0.7308 0.7714,-0.2436 1.6849,-0.2436 1.6646,0 2.3548,0.406 0.6902,0.3857 0.6902,0.9947 0,0.3451 -0.203,0.609 -0.1827,0.2639 -0.406,0.406 -0.3248,-0.2639 -0.8932,-0.4263 -0.5481,-0.1624 -1.1774,-0.1624 -1.1977,0 -1.7052,0.609 -0.5075,0.609 -0.5075,1.7255 v 0.609 h 3.045 q 0.6699,0 0.9338,0.2842 0.2842,0.2639 0.2842,0.7917 0,0.3451 -0.1015,0.6496 -0.1015,0.2842 -0.1624,0.406 h -3.9991 v 8.059099 h -2.3142 z"
           style="font-size:20.3px;font-family:'SABIC Typeface Headline';fill:#808080;stroke-width:0.35"
           id="path141915" />
        <path
           d="m 245.47176,24.53669 q -0.1624,0.1015 -0.5075,0.2842 -0.3451,0.1827 -0.8729,0.3451 -0.5075,0.1624 -1.1977,0.2842 -0.6699,0.1218 -1.4819,0.1218 -1.1368,0 -2.1315,-0.3451 -0.9744,-0.3451 -1.7255,-1.015 -0.7308,-0.6902 -1.1571,-1.6646 -0.4263,-0.9947 -0.4263,-2.2736 0,-1.217999 0.406,-2.212699 0.4263,-1.015 1.1571,-1.7255 0.7511,-0.7308 1.7458,-1.1165 1.015,-0.406 2.2127,-0.406 1.0556,0 1.8676,0.2842 0.812,0.2639 1.3601,0.7308 0.5684,0.4466 0.8526,1.0556 0.2842,0.609 0.2842,1.2992 0,0.7105 -0.2639,1.2992 -0.2639,0.568399 -0.9338,0.994699 -0.6699,0.406 -1.8067,0.6496 -1.1368,0.2233 -2.8826,0.2233 -0.406,0 -0.7714,0 -0.3451,-0.0203 -0.7511,-0.0406 0.1624,1.0353 0.9947,1.6849 0.8526,0.6293 2.4157,0.6293 0.5278,0 0.9744,-0.0812 0.4466,-0.0812 0.7917,-0.203 0.3654,-0.1218 0.609,-0.2436 0.2639,-0.1218 0.3857,-0.1827 z m -7.1253,-4.811099 q 0.4669,0.0203 0.8932,0.0203 0.4263,0 0.8526,0 1.1165,0 1.8067,-0.1421 0.6902,-0.1421 1.0759,-0.3654 0.3857,-0.2233 0.5075,-0.5075 0.1218,-0.2842 0.1218,-0.5887 0,-0.7714 -0.6293,-1.1571 -0.609,-0.3857 -1.5225,-0.3857 -0.7511,0 -1.3195,0.2639 -0.5684,0.2639 -0.9541,0.7105 -0.3857,0.4263 -0.609,0.9947 -0.203,0.5684 -0.2233,1.1571 z"
           style="font-size:20.3px;font-family:'SABIC Typeface Headline';fill:#808080;stroke-width:0.35"
           id="path141917" />
        <path
           d="m 247.58293,18.730891 q 0,-1.8676 1.1368,-2.8826 1.1571,-1.0353 3.1871,-1.0353 1.2789,0 2.0706,0.3654 0.812,0.3451 0.812,1.0759 0,0.3451 -0.203,0.6699 -0.1827,0.3248 -0.3045,0.406 -0.3451,-0.1624 -0.8526,-0.3045 -0.5075,-0.1421 -1.1571,-0.1421 -2.3751,0 -2.3751,2.5172 v 5.886999 h -2.3142 z"
           style="font-size:20.3px;font-family:'SABIC Typeface Headline';fill:#808080;stroke-width:0.35"
           id="path141919" />
        <path
           d="m 261.87409,22.10069 q 0.2233,0.1624 0.6699,0.406 0.4466,0.2233 1.0962,0.4669 0.6699,0.2233 1.5022,0.3857 0.8526,0.1624 1.8473,0.1624 1.7661,0 2.5172,-0.5075 0.7714,-0.5278 0.7714,-1.4819 0,-0.4669 -0.1827,-0.7917 -0.1624,-0.3248 -0.5075,-0.5481 -0.3248,-0.2436 -0.812,-0.385699 -0.4669,-0.1421 -1.0759,-0.2436 l -2.233,-0.406 q -0.8526,-0.1421 -1.6443,-0.4263 -0.7917,-0.2842 -1.4007,-0.7511 -0.609,-0.4669 -0.9744,-1.1368 -0.3654,-0.6902 -0.3654,-1.6443 0,-0.8526 0.3045,-1.624 0.3248,-0.7714 1.015,-1.3398 0.6902,-0.5684 1.7458,-0.8932 1.0556,-0.3451 2.5578,-0.3451 1.0962,0 1.9082,0.1218 0.812,0.1218 1.3804,0.3045 0.5684,0.1624 0.9135,0.3451 0.3451,0.1827 0.5075,0.2842 0.3248,0.2233 0.5278,0.4872 0.203,0.2639 0.203,0.609 0,0.4669 -0.2842,0.8729 -0.2842,0.3857 -0.5278,0.5481 -0.1827,-0.203 -0.5887,-0.4466 -0.3857,-0.2639 -0.9744,-0.4872 -0.5684,-0.2233 -1.3398,-0.3857 -0.7714,-0.1624 -1.6849,-0.1624 -0.9135,0 -1.5428,0.1421 -0.609,0.1421 -0.9744,0.406 -0.3654,0.2436 -0.5278,0.609 -0.1624,0.3451 -0.1624,0.7917 0,0.7714 0.5887,1.218 0.609,0.4263 2.0097,0.6902 l 2.2736,0.4263 q 2.2127,0.406 3.3292,1.3398 1.1165,0.9135 1.1165,2.659299 0,0.9744 -0.3857,1.7661 -0.3857,0.7714 -1.1368,1.3398 -0.7308,0.5684 -1.8473,0.8729 -1.0962,0.3045 -2.5375,0.3045 -1.218,0 -2.233,-0.203 -1.015,-0.1827 -1.8067,-0.4466 -0.7917,-0.2842 -1.3195,-0.5684 -0.5278,-0.2842 -0.7714,-0.4466 z"
           style="font-size:20.3px;font-family:'SABIC Typeface Headline';fill:#808080;stroke-width:0.35"
           id="path141921" />
        <path
           d="m 274.80515,16.173091 q 0,-0.5481 0.3248,-0.812 0.3248,-0.2639 0.8932,-0.2639 0.3654,0 0.6699,0.1015 0.3248,0.0812 0.4263,0.1218 v 5.420099 q 0,1.1977 0.6293,1.9082 0.6496,0.7105 1.9894,0.7105 1.2383,0 1.9488,-0.7105 0.7105,-0.7308 0.7105,-2.1315 v -4.344199 q 0,-0.5481 0.3248,-0.812 0.3248,-0.2639 0.8932,-0.2639 0.3654,0 0.6699,0.1015 0.3248,0.0812 0.4263,0.1218 v 8.891399 q 0,1.4413 -0.3857,2.436 -0.3857,1.015 -1.0962,1.6646 -0.7105,0.6496 -1.7052,0.9338 -0.9947,0.3045 -2.2127,0.3045 -0.8323,0 -1.5225,-0.1015 -0.6902,-0.0812 -1.2383,-0.203 -0.5278,-0.1218 -0.8729,-0.2436 -0.3451,-0.1015 -0.4872,-0.1624 0.1624,-0.4263 0.3045,-0.8729 0.1421,-0.4263 0.2842,-0.8526 0.1421,0.0609 0.4466,0.1624 0.3045,0.1015 0.7308,0.1827 0.4263,0.1015 0.9541,0.1624 0.5481,0.0609 1.1571,0.0609 0.7917,0 1.421,-0.1827 0.6293,-0.1624 1.0556,-0.5887 0.4466,-0.4263 0.6699,-1.1368 0.2436,-0.6902 0.2436,-1.7458 -0.406,0.5887 -1.2789,0.9541 -0.8526,0.3451 -1.8879,0.3451 -0.9744,0 -1.8067,-0.2639 -0.8323,-0.2842 -1.421,-0.7917 -0.5887,-0.5278 -0.9338,-1.2992 -0.3248,-0.7714 -0.3248,-1.7661 z"
           style="font-size:20.3px;font-family:'SABIC Typeface Headline';fill:#808080;stroke-width:0.35"
           id="path141923" />
        <path
           d="m 287.22871,22.75029 q 0.1421,0.1015 0.5075,0.2639 0.3654,0.1624 0.8932,0.3451 0.5481,0.1624 1.2383,0.2842 0.6902,0.1218 1.5022,0.1218 1.0556,0 1.7255,-0.2639 0.6699,-0.2842 0.6699,-0.9541 0,-0.5684 -0.4263,-0.8526 -0.4263,-0.3045 -1.5225,-0.4263 l -1.5834,-0.1827 q -0.812,-0.0812 -1.5022,-0.2842 -0.6699,-0.2233 -1.1571,-0.5887 -0.4872,-0.365399 -0.7714,-0.893199 -0.2639,-0.5481 -0.2639,-1.2992 0,-0.6496 0.2436,-1.218 0.2639,-0.5887 0.812,-1.0353 0.5481,-0.4466 1.421,-0.6902 0.8932,-0.2639 2.1518,-0.2639 2.1112,0 3.2683,0.4669 1.1774,0.4669 1.1774,1.218 0,0.2436 -0.1015,0.4263 -0.0812,0.1827 -0.203,0.3248 -0.1015,0.1421 -0.2233,0.2436 -0.1218,0.0812 -0.1827,0.1015 -0.0812,-0.0812 -0.3654,-0.2436 -0.2639,-0.1827 -0.7308,-0.3451 -0.4669,-0.1827 -1.1165,-0.3045 -0.6496,-0.1421 -1.5022,-0.1421 -2.3548,0 -2.3548,1.2383 0,0.5278 0.4466,0.812 0.4466,0.2639 1.2789,0.3654 l 2.0706,0.2639 q 1.6849,0.2233 2.6187,0.933799 0.9338,0.6902 0.9338,2.0503 0,1.5225 -1.218,2.436 -1.1977,0.9135 -3.4713,0.9135 -1.0962,0 -1.9894,-0.1624 -0.8932,-0.1624 -1.5631,-0.3654 -0.6496,-0.2233 -1.0556,-0.4263 -0.406,-0.203 -0.5278,-0.3045 z"
           style="font-size:20.3px;font-family:'SABIC Typeface Headline';fill:#808080;stroke-width:0.35"
           id="path141925" />
        <path
           d="m 301.78381,25.57199 q -1.7864,0 -2.6999,-0.9135 -0.9135,-0.9338 -0.9135,-2.436 v -8.931999 q 0,-0.5684 0.3248,-0.812 0.3248,-0.2639 0.8932,-0.2639 0.3654,0 0.6699,0.1015 0.3248,0.0812 0.4263,0.1218 v 2.6593 h 2.9435 q 0.6699,0 0.9338,0.2842 0.2842,0.2639 0.2842,0.7917 0,0.3451 -0.1015,0.6496 -0.1015,0.2842 -0.1624,0.406 h -3.8976 v 4.526899 q 0,0.5278 0.1421,0.8729 0.1421,0.3248 0.3857,0.5278 0.2639,0.203 0.5887,0.2842 0.3451,0.0812 0.7105,0.0812 0.5887,0 1.0962,-0.1827 0.5075,-0.1827 0.7308,-0.3451 l 0.9338,1.5428 q -0.1624,0.1218 -0.4669,0.3045 -0.2842,0.1827 -0.7105,0.3451 -0.4263,0.1624 -0.9541,0.2639 -0.5278,0.1218 -1.1571,0.1218 z"
           style="font-size:20.3px;font-family:'SABIC Typeface Headline';fill:#808080;stroke-width:0.35"
           id="path141927" />
        <path
           d="m 314.93818,24.53669 q -0.1624,0.1015 -0.5075,0.2842 -0.3451,0.1827 -0.8729,0.3451 -0.5075,0.1624 -1.1977,0.2842 -0.6699,0.1218 -1.4819,0.1218 -1.1368,0 -2.1315,-0.3451 -0.9744,-0.3451 -1.7255,-1.015 -0.7308,-0.6902 -1.1571,-1.6646 -0.4263,-0.9947 -0.4263,-2.2736 0,-1.217999 0.406,-2.212699 0.4263,-1.015 1.1571,-1.7255 0.7511,-0.7308 1.7458,-1.1165 1.015,-0.406 2.2127,-0.406 1.0556,0 1.8676,0.2842 0.812,0.2639 1.3601,0.7308 0.5684,0.4466 0.8526,1.0556 0.2842,0.609 0.2842,1.2992 0,0.7105 -0.2639,1.2992 -0.2639,0.568399 -0.9338,0.994699 -0.6699,0.406 -1.8067,0.6496 -1.1368,0.2233 -2.8826,0.2233 -0.406,0 -0.7714,0 -0.3451,-0.0203 -0.7511,-0.0406 0.1624,1.0353 0.9947,1.6849 0.8526,0.6293 2.4157,0.6293 0.5278,0 0.9744,-0.0812 0.4466,-0.0812 0.7917,-0.203 0.3654,-0.1218 0.609,-0.2436 0.2639,-0.1218 0.3857,-0.1827 z m -7.1253,-4.811099 q 0.4669,0.0203 0.8932,0.0203 0.4263,0 0.8526,0 1.1165,0 1.8067,-0.1421 0.6902,-0.1421 1.0759,-0.3654 0.3857,-0.2233 0.5075,-0.5075 0.1218,-0.2842 0.1218,-0.5887 0,-0.7714 -0.6293,-1.1571 -0.609,-0.3857 -1.5225,-0.3857 -0.7511,0 -1.3195,0.2639 -0.5684,0.2639 -0.9541,0.7105 -0.3857,0.4263 -0.609,0.9947 -0.203,0.5684 -0.2233,1.1571 z"
           style="font-size:20.3px;font-family:'SABIC Typeface Headline';fill:#808080;stroke-width:0.35"
           id="path141929" />
        <path
           d="m 317.04935,18.730891 q 0,-0.9744 0.3451,-1.7052 0.3451,-0.7308 0.9338,-1.218 0.609,-0.4872 1.421,-0.7308 0.812,-0.2639 1.7661,-0.2639 1.2586,0 2.2533,0.4669 0.9947,0.4669 1.5834,1.3804 0.5887,-0.9135 1.5631,-1.3804 0.9744,-0.4669 2.2127,-0.4669 0.9338,0 1.7458,0.2436 0.812,0.2436 1.4007,0.7308 0.5887,0.4872 0.9338,1.218 0.3451,0.7308 0.3451,1.7052 v 6.577199 h -2.3142 v -5.785499 q 0,-1.4007 -0.6293,-1.9894 -0.6293,-0.609 -1.7052,-0.609 -1.0353,0 -1.7458,0.6699 -0.6902,0.6699 -0.6902,2.1721 v 5.541899 h -2.3142 v -5.541899 q 0,-1.5022 -0.7105,-2.1721 -0.6902,-0.6699 -1.7255,-0.6699 -1.0556,0 -1.7052,0.609 -0.6496,0.609 -0.6496,2.0097 v 5.765199 h -2.3142 z"
           style="font-size:20.3px;font-family:'SABIC Typeface Headline';fill:#808080;stroke-width:0.35"
           id="path141931" />
      </g>
      <g
         aria-label="النظام الجديد لنقل الملفات"
         id="text883"
         style="font-size:21.7px;font-family:'SABIC Typeface Headline';fill:#808080;stroke-width:0.35">
        <path
           d="m 348.08506,34.126756 q 0,-0.6076 0.3255,-0.8897 0.3472,-0.3038 0.9548,-0.3038 0.4123,0 0.7378,0.1085 0.3255,0.1085 0.434,0.1519 v 16.166501 h -2.4521 z"
           style="font-size:21.7px;font-family:'SABIC Typeface Headline';fill:#808080;stroke-width:0.35"
           id="path141934" />
        <path
           d="m 339.90416,47.211857 h 1.2803 q 0.6293,0 1.0199,-0.1953 0.3906,-0.1953 0.6076,-0.5642 0.217,-0.3689 0.2821,-0.9331 0.0868,-0.5642 0.0868,-1.2803 V 34.126756 q 0,-0.6076 0.3255,-0.8897 0.3472,-0.3038 0.9548,-0.3038 0.4123,0 0.7378,0.1085 0.3255,0.1085 0.434,0.1519 v 11.414201 q 0,1.2803 -0.2821,2.1917 -0.2604,0.9114 -0.8029,1.4756 -0.5208,0.5642 -1.3237,0.8246 -0.7812,0.2604 -1.8228,0.2604 h -1.4973 z"
           style="font-size:21.7px;font-family:'SABIC Typeface Headline';fill:#808080;stroke-width:0.35"
           id="path141936" />
        <path
           d="m 335.73781,47.884557 q -0.3038,0.5425 -0.7378,0.8463 -0.4123,0.2821 -0.9331,0.434 -0.5208,0.1302 -1.1284,0.1736 -0.5859,0.0217 -1.2152,0.0217 h -0.8463 v -2.1483 h 1.085 q 0.8246,0 1.3237,-0.1736 0.4991,-0.1736 0.7595,-0.5208 0.2604,-0.3689 0.3472,-0.9114 0.0868,-0.5425 0.0868,-1.2803 v -3.4937 q 0,-1.1501 1.2803,-1.1501 0.3906,0 0.7161,0.1085 0.3472,0.0868 0.4557,0.1302 v 4.4051 q 0,0.7161 0.0651,1.2586 0.0868,0.5425 0.3472,0.9114 0.2604,0.3472 0.7595,0.5425 0.4991,0.1736 1.3454,0.1736 h 1.1067 v 2.1483 h -2.1483 q -1.8879,0 -2.6691,-1.4756 z m -1.3888,-10.8934 q 0,-0.5425 0.4123,-0.9331 0.4123,-0.4123 0.9765,-0.4123 0.5642,0 0.9548,0.4123 0.3906,0.3906 0.3906,0.9331 0,0.5425 -0.3906,0.9548 -0.3906,0.3906 -0.9548,0.3906 -0.5642,0 -0.9765,-0.3906 -0.4123,-0.4123 -0.4123,-0.9548 z"
           style="font-size:21.7px;font-family:'SABIC Typeface Headline';fill:#808080;stroke-width:0.35"
           id="path141938" />
        <path
           d="m 311.06494,47.211857 h 3.2767 V 34.105056 q 0,-0.6076 0.3255,-0.8897 0.3472,-0.3038 0.9765,-0.3038 0.3906,0 0.7161,0.1085 0.3255,0.1085 0.434,0.1519 v 9.070601 q 0.2821,-0.5425 0.7812,-1.0199 0.5208,-0.4774 1.2152,-0.8463 0.7161,-0.3689 1.6275,-0.5859 0.9114,-0.217 1.9964,-0.217 1.1067,0 2.1917,0.3255 1.1067,0.3038 1.9747,0.9331 0.8897,0.6293 1.4322,1.5841 0.5642,0.9331 0.5642,2.1917 0,1.5407 -0.9548,2.604 h 3.906 v 2.1483 h -20.4631 z m 11.7831,0 q 1.8011,0 2.5172,-0.6727 0.7378,-0.6727 0.7378,-1.7577 0,-0.5859 -0.2387,-1.1067 -0.2387,-0.5425 -0.7378,-0.9331 -0.4991,-0.3906 -1.2586,-0.6293 -0.7595,-0.2387 -1.7794,-0.2387 -1.2152,0 -2.1917,0.3906 -0.9765,0.3906 -1.6709,1.1067 -0.6944,0.7161 -1.085,1.6926 -0.3689,0.9765 -0.3689,2.1483 z m -1.8662,-10.2207 q 0,-0.5425 0.4123,-0.9331 0.4123,-0.4123 0.9765,-0.4123 0.5642,0 0.9548,0.4123 0.3906,0.3906 0.3906,0.9331 0,0.5425 -0.3906,0.9548 -0.3906,0.3906 -0.9548,0.3906 -0.5642,0 -0.9765,-0.3906 -0.4123,-0.4123 -0.4123,-0.9548 z"
           style="font-size:21.7px;font-family:'SABIC Typeface Headline';fill:#808080;stroke-width:0.35"
           id="path141940" />
        <path
           d="m 310.21864,49.360157 q -1.085,0 -1.8879,-0.2387 -0.7812,-0.2604 -1.3237,-0.8246 -0.5208,-0.5642 -0.7812,-1.4539 -0.2604,-0.9114 -0.2604,-2.2351 V 34.126756 q 0,-0.6076 0.3255,-0.8897 0.3472,-0.3038 0.9548,-0.3038 0.4123,0 0.7378,0.1085 0.3255,0.1085 0.434,0.1519 v 11.045301 q 0,0.7161 0.0651,1.2803 0.0868,0.5642 0.3038,0.9331 0.217,0.3689 0.6076,0.5642 0.3906,0.1953 1.0199,0.1953 h 1.302 v 2.1483 z"
           style="font-size:21.7px;font-family:'SABIC Typeface Headline';fill:#808080;stroke-width:0.35"
           id="path141942" />
        <path
           d="m 290.92737,50.119657 q 0,-1.4973 0.6944,-2.1917 0.6944,-0.7161 2.1049,-0.7161 h 1.0199 q -0.5425,-0.3906 -0.9114,-1.1284 -0.3472,-0.7595 -0.3472,-1.736 0,-0.9982 0.3689,-1.8662 0.3906,-0.868 1.0633,-1.519 0.6727,-0.651 1.5841,-1.0199 0.9331,-0.3689 1.9964,-0.3689 1.0633,0 1.9964,0.3689 0.9331,0.3472 1.6058,0.9982 0.6727,0.6293 1.0633,1.5407 0.3906,0.8897 0.3906,1.9747 0,1.1501 -0.3906,2.0615 -0.3689,0.9114 -1.0633,1.5407 -0.6944,0.6293 -1.6709,0.9765 -0.9765,0.3255 -2.17,0.3255 h -3.689 q -0.7595,0 -0.9982,0.3689 -0.217,0.3906 -0.217,1.0416 v 3.5154 h -2.4304 z m 7.6167,-2.8861 q 0.5859,0 1.0633,-0.217 0.4991,-0.217 0.8246,-0.5859 0.3472,-0.3689 0.5208,-0.868 0.1953,-0.5208 0.1953,-1.085 0,-0.5425 -0.1953,-1.0416 -0.1736,-0.5208 -0.5208,-0.8897 -0.3255,-0.3906 -0.8029,-0.6076 -0.4774,-0.2387 -1.085,-0.2387 -0.5859,0 -1.085,0.2387 -0.4774,0.217 -0.8246,0.6076 -0.3472,0.3689 -0.5425,0.868 -0.1953,0.4991 -0.1953,1.0633 0,0.5642 0.1736,1.0633 0.1953,0.4991 0.5425,0.8897 0.3472,0.3689 0.8246,0.5859 0.4991,0.217 1.1067,0.217 z"
           style="font-size:21.7px;font-family:'SABIC Typeface Headline';fill:#808080;stroke-width:0.35"
           id="path141944" />
        <path
           d="m 281.27093,34.126756 q 0,-0.6076 0.3255,-0.8897 0.3472,-0.3038 0.9548,-0.3038 0.4123,0 0.7378,0.1085 0.3255,0.1085 0.434,0.1519 v 16.166501 h -2.4521 z"
           style="font-size:21.7px;font-family:'SABIC Typeface Headline';fill:#808080;stroke-width:0.35"
           id="path141946" />
        <path
           d="m 273.09003,47.211857 h 1.2803 q 0.6293,0 1.0199,-0.1953 0.3906,-0.1953 0.6076,-0.5642 0.217,-0.3689 0.2821,-0.9331 0.0868,-0.5642 0.0868,-1.2803 V 34.126756 q 0,-0.6076 0.3255,-0.8897 0.3472,-0.3038 0.9548,-0.3038 0.4123,0 0.7378,0.1085 0.3255,0.1085 0.434,0.1519 v 11.414201 q 0,1.2803 -0.2821,2.1917 -0.2604,0.9114 -0.8029,1.4756 -0.5208,0.5642 -1.3237,0.8246 -0.7812,0.2604 -1.8228,0.2604 h -1.4973 z"
           style="font-size:21.7px;font-family:'SABIC Typeface Headline';fill:#808080;stroke-width:0.35"
           id="path141948" />
        <path
           d="m 259.80963,49.360157 v -2.1483 h 9.114 v -1.736 q 0,-0.9982 -0.3472,-1.6926 -0.3472,-0.7161 -0.9548,-1.1284 -0.5859,-0.434 -1.3671,-0.6293 -0.7812,-0.1953 -1.6492,-0.1953 -0.9114,0 -1.6926,0.1953 -0.7812,0.1953 -1.3454,0.4774 -0.3038,-0.2604 -0.4557,-0.5859 -0.1519,-0.3255 -0.1519,-0.651 0,-0.5425 0.4123,-0.868 0.4123,-0.3255 0.9982,-0.4991 0.6076,-0.1953 1.2803,-0.2604 0.6944,-0.0651 1.2369,-0.0651 1.4322,0 2.6257,0.3689 1.2152,0.3689 2.0832,1.085 0.8897,0.7161 1.3671,1.7794 0.4991,1.0633 0.4991,2.4521 v 1.953 h 2.2785 v 2.1483 z m 5.8156,4.2098 q -0.5642,0 -0.9765,-0.4123 -0.3906,-0.3906 -0.3906,-0.9331 0,-0.5208 0.3906,-0.9331 0.4123,-0.3906 0.9765,-0.3906 0.5642,0 0.9548,0.3906 0.4123,0.4123 0.4123,0.9331 0,0.5425 -0.4123,0.9331 -0.3906,0.4123 -0.9548,0.4123 z"
           style="font-size:21.7px;font-family:'SABIC Typeface Headline';fill:#808080;stroke-width:0.35"
           id="path141950" />
        <path
           d="m 254.97055,47.211857 v -0.8029 q 0,-1.2803 -0.4123,-2.17 -0.3906,-0.8897 -1.0633,-1.4322 -0.6727,-0.5425 -1.5407,-0.7812 -0.868,-0.2387 -1.8011,-0.2387 -0.9331,0 -1.6492,0.1953 -0.7161,0.1736 -1.0199,0.3255 -0.1736,-0.1302 -0.3906,-0.4557 -0.217,-0.3472 -0.217,-0.7812 0,-0.4557 0.3472,-0.7378 0.3472,-0.3038 0.868,-0.4557 0.5425,-0.1736 1.1501,-0.2387 0.6293,-0.0651 1.1718,-0.0651 1.4973,0 2.7776,0.434 1.302,0.4123 2.2568,1.2369 0.9548,0.8246 1.4973,2.0832 0.5642,1.2369 0.5642,2.8861 v 0.9982 h 2.9512 v 2.1483 h -14.8211 v -2.1483 z"
           style="font-size:21.7px;font-family:'SABIC Typeface Headline';fill:#808080;stroke-width:0.35"
           id="path141952" />
        <path
           d="m 237.76245,47.211857 h 1.2803 q 0.6293,0 1.0199,-0.1953 0.3906,-0.1953 0.6076,-0.5642 0.217,-0.3689 0.2821,-0.9331 0.0868,-0.5642 0.0868,-1.2803 v -3.4069 q 0,-1.1501 1.2803,-1.1501 0.3906,0 0.7161,0.1085 0.3472,0.0868 0.4557,0.1302 v 4.6872 q 0,1.2803 -0.2821,2.1917 -0.2604,0.9114 -0.8029,1.4756 -0.5208,0.5642 -1.3237,0.8246 -0.7812,0.2604 -1.8445,0.2604 h -1.4756 z m -0.0868,4.8825 q 0,-0.4991 0.3472,-0.868 0.3472,-0.3472 0.868,-0.3472 0.4991,0 0.8463,0.3472 0.3689,0.3689 0.3689,0.868 0,0.4991 -0.3689,0.8463 -0.3472,0.3689 -0.8463,0.3689 -0.5208,0 -0.868,-0.3689 -0.3472,-0.3472 -0.3472,-0.8463 z m 3.4069,0 q 0,-0.4991 0.3472,-0.868 0.3689,-0.3472 0.868,-0.3472 0.4991,0 0.8463,0.3472 0.3689,0.3689 0.3689,0.868 0,0.4991 -0.3689,0.8463 -0.3472,0.3689 -0.8463,0.3689 -0.4991,0 -0.868,-0.3689 -0.3472,-0.3472 -0.3472,-0.8463 z"
           style="font-size:21.7px;font-family:'SABIC Typeface Headline';fill:#808080;stroke-width:0.35"
           id="path141954" />
        <path
           d="m 232.92337,47.211857 v -0.8029 q 0,-1.2803 -0.4123,-2.17 -0.3906,-0.8897 -1.0633,-1.4322 -0.6727,-0.5425 -1.5407,-0.7812 -0.868,-0.2387 -1.8011,-0.2387 -0.9331,0 -1.6492,0.1953 -0.7161,0.1736 -1.0199,0.3255 -0.1736,-0.1302 -0.3906,-0.4557 -0.217,-0.3472 -0.217,-0.7812 0,-0.4557 0.3472,-0.7378 0.3472,-0.3038 0.868,-0.4557 0.5425,-0.1736 1.1501,-0.2387 0.6293,-0.0651 1.1718,-0.0651 1.4973,0 2.7776,0.434 1.302,0.4123 2.2568,1.2369 0.9548,0.8246 1.4973,2.0832 0.5642,1.2369 0.5642,2.8861 v 0.9982 h 2.9512 v 2.1483 h -14.8211 v -2.1483 z"
           style="font-size:21.7px;font-family:'SABIC Typeface Headline';fill:#808080;stroke-width:0.35"
           id="path141956" />
        <path
           d="m 210.26859,47.211857 h 1.2803 q 0.6293,0 1.0199,-0.1953 0.3906,-0.1953 0.6076,-0.5642 0.217,-0.3689 0.2821,-0.9331 0.0868,-0.5642 0.0868,-1.2803 V 34.126756 q 0,-0.6076 0.3255,-0.8897 0.3472,-0.3038 0.9548,-0.3038 0.4123,0 0.7378,0.1085 0.3255,0.1085 0.434,0.1519 v 11.414201 q 0,1.2803 -0.2821,2.1917 -0.2604,0.9114 -0.8029,1.4756 -0.5208,0.5642 -1.3237,0.8246 -0.7812,0.2604 -1.8228,0.2604 h -1.4973 z"
           style="font-size:21.7px;font-family:'SABIC Typeface Headline';fill:#808080;stroke-width:0.35"
           id="path141958" />
        <path
           d="m 206.10223,47.884557 q -0.3038,0.5425 -0.7378,0.8463 -0.4123,0.2821 -0.9331,0.434 -0.5208,0.1302 -1.1284,0.1736 -0.5859,0.0217 -1.2152,0.0217 h -0.8463 v -2.1483 h 1.085 q 0.8246,0 1.3237,-0.1736 0.4991,-0.1736 0.7595,-0.5208 0.2604,-0.3689 0.3472,-0.9114 0.0868,-0.5425 0.0868,-1.2803 v -3.4937 q 0,-1.1501 1.2803,-1.1501 0.3906,0 0.7161,0.1085 0.3472,0.0868 0.4557,0.1302 v 4.4051 q 0,0.7161 0.0651,1.2586 0.0868,0.5425 0.3472,0.9114 0.2604,0.3472 0.7595,0.5425 0.4991,0.1736 1.3454,0.1736 h 1.1067 v 2.1483 h -2.1483 q -1.8879,0 -2.6691,-1.4756 z m -1.3888,-10.8934 q 0,-0.5425 0.4123,-0.9331 0.4123,-0.4123 0.9765,-0.4123 0.5642,0 0.9548,0.4123 0.3906,0.3906 0.3906,0.9331 0,0.5425 -0.3906,0.9548 -0.3906,0.3906 -0.9548,0.3906 -0.5642,0 -0.9765,-0.3906 -0.4123,-0.4123 -0.4123,-0.9548 z"
           style="font-size:21.7px;font-family:'SABIC Typeface Headline';fill:#808080;stroke-width:0.35"
           id="path141960" />
        <path
           d="m 186.13825,47.211857 h 3.7541 q -0.4991,-0.4991 -0.7812,-1.2803 -0.2821,-0.7812 -0.2821,-1.519 0,-0.9982 0.3689,-1.8879 0.3906,-0.8897 1.0633,-1.5407 0.6944,-0.651 1.6275,-1.0199 0.9548,-0.3906 2.1049,-0.3906 1.1501,0 2.1049,0.3906 0.9548,0.3689 1.6275,1.0199 0.6944,0.651 1.0633,1.5407 0.3906,0.8897 0.3906,1.8879 0,0.7378 -0.2821,1.519 -0.2821,0.7812 -0.7812,1.2803 h 3.7758 v 2.1483 h -15.7542 z m 10.5896,-2.7776 q 0,-0.5859 -0.217,-1.085 -0.1953,-0.4991 -0.5642,-0.868 -0.3472,-0.3906 -0.868,-0.5859 -0.4991,-0.217 -1.085,-0.217 -0.5859,0 -1.085,0.217 -0.4991,0.1953 -0.868,0.5859 -0.3472,0.3689 -0.5642,0.868 -0.1953,0.4991 -0.1953,1.085 0,0.5859 0.1953,1.1067 0.217,0.5208 0.5642,0.9114 0.3689,0.3689 0.868,0.5859 0.4991,0.217 1.085,0.217 0.5859,0 1.085,-0.217 0.5208,-0.217 0.868,-0.5859 0.3689,-0.3906 0.5642,-0.9114 0.217,-0.5208 0.217,-1.1067 z m -2.2134,-7.3129 q 0,-0.4991 0.3472,-0.8463 0.3472,-0.3689 0.8463,-0.3689 0.5208,0 0.868,0.3689 0.3689,0.3472 0.3689,0.8463 0,0.4991 -0.3689,0.868 -0.3472,0.3472 -0.868,0.3472 -0.4991,0 -0.8463,-0.3472 -0.3472,-0.3689 -0.3472,-0.868 z m -3.4069,0 q 0,-0.4991 0.3472,-0.8463 0.3472,-0.3689 0.8463,-0.3689 0.4991,0 0.8463,0.3689 0.3689,0.3472 0.3689,0.8463 0,0.4991 -0.3689,0.868 -0.3472,0.3472 -0.8463,0.3472 -0.4991,0 -0.8463,-0.3472 -0.3472,-0.3689 -0.3472,-0.868 z"
           style="font-size:21.7px;font-family:'SABIC Typeface Headline';fill:#808080;stroke-width:0.35"
           id="path141962" />
        <path
           d="m 177.04595,54.459657 q -1.4973,0 -2.6474,-0.4557 -1.1501,-0.4557 -1.953,-1.302 -0.7812,-0.8246 -1.1935,-2.0181 -0.4123,-1.1935 -0.4123,-2.6691 0,-1.1718 0.1302,-1.8662 0.1302,-0.7161 0.3472,-1.1067 0.2387,-0.3906 0.5642,-0.5208 0.3255,-0.1302 0.7161,-0.1302 0.434,0 0.7595,0.1519 0.3472,0.1519 0.4774,0.2387 -0.2604,1.1501 -0.3689,1.8445 -0.1085,0.6944 -0.1085,1.302 0,2.0398 0.9331,3.1682 0.9331,1.1284 2.7559,1.1284 1.7143,0 2.6908,-1.1501 0.9982,-1.1501 0.9982,-3.6239 V 34.126756 q 0,-0.6076 0.3255,-0.8897 0.3472,-0.3038 0.9765,-0.3038 0.3906,0 0.7161,0.1085 0.3255,0.1085 0.434,0.1519 v 11.067001 q 0,0.6727 0.0651,1.2152 0.0868,0.5425 0.3038,0.9331 0.2387,0.3906 0.6727,0.6076 0.434,0.1953 1.1501,0.1953 h 1.4105 v 2.1483 h -1.2152 q -0.8463,0 -1.4322,-0.1736 -0.5859,-0.1953 -1.0199,-0.6727 -0.1302,1.3671 -0.5642,2.4521 -0.434,1.1067 -1.1718,1.8879 -0.7378,0.7812 -1.8228,1.1935 -1.085,0.4123 -2.5172,0.4123 z"
           style="font-size:21.7px;font-family:'SABIC Typeface Headline';fill:#808080;stroke-width:0.35"
           id="path141964" />
        <path
           d="m 160.68419,34.126756 q 0,-0.6076 0.3255,-0.8897 0.3472,-0.3038 0.9548,-0.3038 0.4123,0 0.7378,0.1085 0.3255,0.1085 0.434,0.1519 v 16.166501 h -2.4521 z"
           style="font-size:21.7px;font-family:'SABIC Typeface Headline';fill:#808080;stroke-width:0.35"
           id="path141966" />
        <path
           d="m 152.5033,47.211857 h 1.2803 q 0.6293,0 1.0199,-0.1953 0.3906,-0.1953 0.6076,-0.5642 0.217,-0.3689 0.2821,-0.9331 0.0868,-0.5642 0.0868,-1.2803 V 34.126756 q 0,-0.6076 0.3255,-0.8897 0.3472,-0.3038 0.9548,-0.3038 0.4123,0 0.7378,0.1085 0.3255,0.1085 0.434,0.1519 v 11.414201 q 0,1.2803 -0.2821,2.1917 -0.2604,0.9114 -0.8029,1.4756 -0.5208,0.5642 -1.3237,0.8246 -0.7812,0.2604 -1.8228,0.2604 h -1.4973 z"
           style="font-size:21.7px;font-family:'SABIC Typeface Headline';fill:#808080;stroke-width:0.35"
           id="path141968" />
        <path
           d="m 145.14702,47.233557 q 0.6076,0 1.085,-0.217 0.4774,-0.217 0.8029,-0.5859 0.3472,-0.3906 0.5208,-0.8897 0.1953,-0.4991 0.1953,-1.0633 0,-0.5642 -0.1953,-1.0633 -0.1736,-0.4991 -0.5208,-0.868 -0.3255,-0.3906 -0.8246,-0.6076 -0.4991,-0.2387 -1.1067,-0.2387 -0.6076,0 -1.085,0.2387 -0.4774,0.217 -0.8246,0.6076 -0.3255,0.3689 -0.5208,0.868 -0.1736,0.4991 -0.1736,1.0633 0,0.5642 0.1736,1.0633 0.1953,0.4991 0.5208,0.8897 0.3472,0.3689 0.8246,0.5859 0.4991,0.217 1.1284,0.217 z m 0,2.1266 q -1.4105,0 -2.3653,-0.4774 -0.9331,-0.4991 -1.4105,-1.1718 -0.4557,0.8029 -1.302,1.2369 -0.8463,0.4123 -1.9096,0.4123 h -1.0633 v -2.1483 h 0.8029 q 0.7161,0 1.1501,-0.1736 0.434,-0.1953 0.651,-0.5425 0.2387,-0.3472 0.3038,-0.868 0.0868,-0.5208 0.0868,-1.1935 0,-1.0633 0.3689,-1.953 0.3906,-0.8897 1.0416,-1.5407 0.6727,-0.651 1.6058,-0.9982 0.9331,-0.3689 2.0398,-0.3689 1.085,0 1.9964,0.3689 0.9331,0.3472 1.5841,0.9982 0.6727,0.651 1.0416,1.5407 0.3906,0.8897 0.3906,1.953 0,0.6727 0.0651,1.1935 0.0868,0.5208 0.3038,0.868 0.2387,0.3472 0.6727,0.5425 0.434,0.1736 1.1501,0.1736 h 0.8029 v 2.1483 h -1.0633 q -1.0633,0 -1.9313,-0.4123 -0.8463,-0.434 -1.302,-1.2369 -0.4774,0.6727 -1.4105,1.1718 -0.9331,0.4774 -2.3002,0.4774 z"
           style="font-size:21.7px;font-family:'SABIC Typeface Headline';fill:#808080;stroke-width:0.35"
           id="path141970" />
        <path
           d="m 128.09084,47.211857 h 1.4105 q 0.7161,0 1.1501,-0.1953 0.434,-0.217 0.651,-0.6076 0.2387,-0.3906 0.3038,-0.9331 0.0868,-0.5425 0.0868,-1.2152 V 34.126756 q 0,-0.6076 0.3255,-0.8897 0.3472,-0.3038 0.9548,-0.3038 0.4123,0 0.7378,0.1085 0.3255,0.1085 0.434,0.1519 v 11.067001 q 0,0.6727 0.0651,1.2152 0.0868,0.5425 0.3038,0.9331 0.2387,0.3906 0.6727,0.6076 0.434,0.1953 1.1501,0.1953 h 1.4105 v 2.1483 h -1.302 q -1.2369,0 -2.1483,-0.2821 -0.8897,-0.3038 -1.3671,-1.1935 -0.2604,0.4774 -0.6293,0.7812 -0.3689,0.2821 -0.8246,0.434 -0.434,0.1519 -0.9548,0.217 -0.5208,0.0434 -1.1284,0.0434 h -1.302 z"
           style="font-size:21.7px;font-family:'SABIC Typeface Headline';fill:#808080;stroke-width:0.35"
           id="path141972" />
        <path
           d="m 112.98766,47.211857 h 3.7541 q -0.4991,-0.4991 -0.7812,-1.2803 -0.2821,-0.7812 -0.2821,-1.519 0,-0.9982 0.3689,-1.8879 0.3906,-0.8897 1.0633,-1.5407 0.6944,-0.651 1.6275,-1.0199 0.9548,-0.3906 2.1049,-0.3906 1.1501,0 2.1049,0.3906 0.9548,0.3689 1.6275,1.0199 0.6944,0.651 1.0633,1.5407 0.3906,0.8897 0.3906,1.8879 0,0.7378 -0.2821,1.519 -0.2821,0.7812 -0.7812,1.2803 h 3.7758 v 2.1483 h -15.7542 z m 10.5896,-2.7776 q 0,-0.5859 -0.217,-1.085 -0.1953,-0.4991 -0.5642,-0.868 -0.3472,-0.3906 -0.868,-0.5859 -0.4991,-0.217 -1.085,-0.217 -0.5859,0 -1.085,0.217 -0.4991,0.1953 -0.868,0.5859 -0.3472,0.3689 -0.5642,0.868 -0.1953,0.4991 -0.1953,1.085 0,0.5859 0.1953,1.1067 0.217,0.5208 0.5642,0.9114 0.3689,0.3689 0.868,0.5859 0.4991,0.217 1.085,0.217 0.5859,0 1.085,-0.217 0.5208,-0.217 0.868,-0.5859 0.3689,-0.3906 0.5642,-0.9114 0.217,-0.5208 0.217,-1.1067 z m -4.0796,-7.4431 q 0,-0.5425 0.4123,-0.9331 0.4123,-0.4123 0.9765,-0.4123 0.5642,0 0.9548,0.4123 0.3906,0.3906 0.3906,0.9331 0,0.5425 -0.3906,0.9548 -0.3906,0.3906 -0.9548,0.3906 -0.5642,0 -0.9765,-0.3906 -0.4123,-0.4123 -0.4123,-0.9548 z"
           style="font-size:21.7px;font-family:'SABIC Typeface Headline';fill:#808080;stroke-width:0.35"
           id="path141974" />
        <path
           d="m 112.14137,49.360157 q -1.085,0 -1.8879,-0.2387 -0.7812,-0.2604 -1.3237,-0.8246 -0.5208,-0.5642 -0.7812,-1.4539 -0.2604,-0.9114 -0.2604,-2.2351 V 34.126756 q 0,-0.6076 0.3255,-0.8897 0.3472,-0.3038 0.9548,-0.3038 0.4123,0 0.7378,0.1085 0.3255,0.1085 0.434,0.1519 v 11.045301 q 0,0.7161 0.0651,1.2803 0.0868,0.5642 0.3038,0.9331 0.217,0.3689 0.6076,0.5642 0.3906,0.1953 1.0199,0.1953 h 1.302 v 2.1483 z"
           style="font-size:21.7px;font-family:'SABIC Typeface Headline';fill:#808080;stroke-width:0.35"
           id="path141976" />
        <path
           d="m 95.410684,49.360157 q -1.4973,0 -2.7125,-0.4123 -1.1935,-0.4123 -2.0398,-1.1284 -0.8463,-0.7378 -1.302,-1.736 -0.434,-0.9982 -0.434,-2.17 0,-0.9982 0.3038,-1.6492 0.3038,-0.651 1.1718,-0.651 0.3472,0 0.6293,0.0868 0.3038,0.0651 0.6076,0.1953 -0.1302,0.5642 -0.1953,1.0416 -0.0434,0.4557 -0.0434,0.8029 0,1.6275 1.1501,2.5606 1.1501,0.9114 3.4503,0.9114 h 4.990996 q 0.6293,0 1.0199,-0.1953 0.3906,-0.1953 0.6076,-0.5642 0.217,-0.3689 0.2821,-0.9331 0.0868,-0.5642 0.0868,-1.2803 v -3.3635 q 0,-0.6076 0.3255,-0.8897 0.3472,-0.3038 0.9548,-0.3038 0.4123,0 0.7378,0.1085 0.3255,0.1085 0.434,0.1519 v 4.6655 q 0,1.2803 -0.2821,2.1917 -0.2604,0.9114 -0.8029,1.4756 -0.5208,0.5642 -1.3237,0.8246 -0.7812,0.2604 -1.8228,0.2604 z m 2.7125,-12.2388 q 0,-0.4991 0.347201,-0.8463 0.3472,-0.3689 0.8463,-0.3689 0.5208,0 0.867995,0.3689 0.3689,0.3472 0.3689,0.8463 0,0.4991 -0.3689,0.868 -0.347195,0.3472 -0.867995,0.3472 -0.4991,0 -0.8463,-0.3472 -0.347201,-0.3689 -0.347201,-0.868 z m -3.4069,0 q 0,-0.4991 0.3472,-0.8463 0.3472,-0.3689 0.8463,-0.3689 0.4991,0 0.8463,0.3689 0.3689,0.3472 0.3689,0.8463 0,0.4991 -0.3689,0.868 -0.3472,0.3472 -0.8463,0.3472 -0.4991,0 -0.8463,-0.3472 -0.3472,-0.3689 -0.3472,-0.868 z"
           style="font-size:21.7px;font-family:'SABIC Typeface Headline';fill:#808080;stroke-width:0.35"
           id="path141978" />
      </g>
    </g>
    <g
       id="g898"
       transform="translate(-474.89837,-177.14463)" />
  </g>
  <g
     aria-label="NFTS"
     id="text961"
     style="font-size:36.1562px;line-height:1.25;font-family:'SABIC Typeface Headline';-inkscape-font-specification:'SABIC Typeface Headline, Normal';letter-spacing:0px;word-spacing:0px;fill:#393939;fill-opacity:0.764706;stroke-width:2.08593">
    <path
       d="m 64.86273,25.37722 q 0,-1.735497 0.795437,-2.494777 0.795436,-0.795437 1.988591,-0.795437 1.04853,0 1.843966,0.542343 0.795436,0.506187 1.627029,1.699342 L 81.892301,40.12895 V 24.075597 q 0,-1.012373 0.578499,-1.482404 0.578499,-0.506187 1.627029,-0.506187 0.723124,0 1.265467,0.180781 0.578499,0.180781 0.75928,0.28925 V 46.89016 H 81.783832 L 69.129162,28.342029 V 46.89016 H 64.86273 Z"
       id="path141864" />
    <path
       d="m 91.437491,24.545628 q 0,-2.458622 2.639402,-2.458622 h 12.835447 q 2.16938,0 2.16938,1.952435 0,0.686968 -0.21694,1.265467 -0.21694,0.542343 -0.32541,0.723124 H 95.812391 v 6.580428 h 10.051419 q 2.16938,0 2.16938,1.952435 0,0.686968 -0.21694,1.265467 -0.21694,0.542343 -0.32541,0.723124 H 95.812391 V 46.89016 h -4.3749 z"
       id="path141866" />
    <path
       d="m 119.45853,26.028032 h -7.23124 q -2.13321,0 -2.13321,-1.952435 0,-0.686968 0.21693,-1.229311 0.21694,-0.578499 0.32541,-0.75928 h 20.64519 q 2.13322,0 2.13322,1.952435 0,0.686968 -0.21694,1.265467 -0.18078,0.542343 -0.32541,0.723124 h -9.11136 V 46.89016 h -4.30259 z"
       id="path141868" />
    <path
       d="m 137.0304,41.213636 q 0.39772,0.28925 1.19316,0.723124 0.79544,0.397718 1.95243,0.831593 1.19316,0.397718 2.67556,0.686968 1.51856,0.289249 3.29022,0.289249 3.14559,0 4.48337,-0.903905 1.37393,-0.940061 1.37393,-2.639402 0,-0.831593 -0.3254,-1.410092 -0.28925,-0.578499 -0.90391,-0.976218 -0.5785,-0.433874 -1.44625,-0.686968 -0.83159,-0.253093 -1.91628,-0.433874 l -3.97718,-0.723124 q -1.51856,-0.253093 -2.92865,-0.75928 -1.41009,-0.506187 -2.49478,-1.33778 -1.08468,-0.831592 -1.7355,-2.024747 -0.65081,-1.229311 -0.65081,-2.928652 0,-1.51856 0.54235,-2.892496 0.5785,-1.373936 1.80781,-2.386309 1.22931,-1.012374 3.10943,-1.590873 1.88012,-0.614655 4.55568,-0.614655 1.95244,0 3.39868,0.216937 1.44625,0.216937 2.45862,0.542343 1.01238,0.289249 1.62703,0.614655 0.61466,0.325406 0.90391,0.506187 0.5785,0.397718 0.94006,0.867749 0.36156,0.47003 0.36156,1.084686 0,0.831592 -0.50618,1.554716 -0.50619,0.686968 -0.94007,0.976218 -0.3254,-0.361562 -1.04853,-0.795437 -0.68696,-0.47003 -1.73549,-0.867748 -1.01238,-0.397719 -2.38631,-0.686968 -1.37394,-0.28925 -3.00097,-0.28925 -1.62703,0 -2.74787,0.253094 -1.08468,0.253093 -1.7355,0.723124 -0.65081,0.433874 -0.94006,1.084686 -0.28925,0.614655 -0.28925,1.410091 0,1.373936 1.04853,2.169372 1.08469,0.759281 3.57947,1.229311 l 4.04949,0.75928 q 3.94103,0.723124 5.92962,2.38631 1.98859,1.627029 1.98859,4.736462 0,1.735498 -0.68697,3.145589 -0.68697,1.373936 -2.02475,2.38631 -1.30162,1.012373 -3.29021,1.554716 -1.95243,0.542343 -4.51953,0.542343 -2.16937,0 -3.97718,-0.361562 -1.80781,-0.325406 -3.2179,-0.795436 -1.41009,-0.506187 -2.35015,-1.012374 -0.94006,-0.506187 -1.37394,-0.795436 z"
       id="path141870" />
  </g>
  <g
     id="g29269"
     transform="matrix(0.51970592,0,0,0.51970592,13.223903,-43.561397)">
    <path
       id="path22753"
       style="fill:none;stroke:#169eda;stroke-width:3.2;stroke-linecap:round;stroke-linejoin:bevel;stroke-miterlimit:4;stroke-dasharray:none;stroke-opacity:1;paint-order:markers fill stroke"
       d="M -0.95685556,180.84564 V 115.5061 H 22.281057 l 6.287906,7.24476 h 50.303245 v 12.98589 H 7.7915354 Z m -0.13669304,1.91372 8.885084,-47.02261 H 84.203268 l -7.92823,46.88591 z" />
    <path
       style="fill:none;stroke:#ffce16;stroke-width:3.6;stroke-linecap:butt;stroke-linejoin:bevel;stroke-miterlimit:4;stroke-dasharray:none;stroke-opacity:1"
       d="m 72.310918,134.09643 v -5.60444 H 9.9786334 v 5.33105"
       id="path23450" />
    <g
       id="g73592"
       transform="matrix(0.74687641,0,0,0.74687641,92.288813,68.383138)">
      <ellipse
         style="fill:none;fill-opacity:1;stroke:#169eda;stroke-width:3.77941;stroke-linecap:round;stroke-linejoin:bevel;stroke-miterlimit:4;stroke-dasharray:none;stroke-opacity:1;paint-order:markers fill stroke"
         id="path62790"
         cx="-65.918335"
         cy="111.54868"
         rx="7.9839282"
         ry="7.8273797" />
      <path
         id="path70991"
         style="fill:none;stroke:#169eda;stroke-width:4.3668;stroke-linecap:round;stroke-linejoin:bevel;stroke-miterlimit:4;stroke-dasharray:none;stroke-opacity:1;paint-order:markers fill stroke"
         d="m -66.555535,124.08642 c -6.247275,0.0298 -11.392969,7.84356 -11.725334,17.80497 4.287702,0 8.023683,0.41087 12.333745,0.45499 3.856703,-0.0305 7.408059,-0.19326 11.143767,-0.19326 -0.124436,-10.22755 -5.345852,-18.04689 -11.752178,-18.0667 z"
         sodipodi:nodetypes="ccccc" />
    </g>
  </g>
</svg>
